<?xml version="1.0" encoding="UTF-8"?>
<!-- Generator: Adobe Illustrator 23.0.3, SVG Export Plug-In . SVG Version: 6.00 Build 0)  -->
<svg version="1.1" id="svg19" xmlns:cc="http://creativecommons.org/ns#" xmlns:dc="http://purl.org/dc/elements/1.1/" xmlns:inkscape="http://www.inkscape.org/namespaces/inkscape" xmlns:rdf="http://www.w3.org/1999/02/22-rdf-syntax-ns#" xmlns:sodipodi="http://sodipodi.sourceforge.net/DTD/sodipodi-0.dtd" xmlns:svg="http://www.w3.org/2000/svg" xmlns="http://www.w3.org/2000/svg" xmlns:xlink="http://www.w3.org/1999/xlink" x="0px" y="0px" viewBox="0 0 164 57" style="enable-background:new 0 0 164 57;" xml:space="preserve"><script xmlns=""/>
<style type="text/css">
	.st0{fill:none;}
	.st1{fill:#5C5C5C;}
	.st2{fill:#D30435;}
	.st3{fill:#FFFFFF;}
</style>
<sodipodi:namedview bordercolor="#666666" borderopacity="1" gridtolerance="10" guidetolerance="10" id="namedview21" inkscape:current-layer="svg19" inkscape:cx="82.688002" inkscape:cy="37.89732" inkscape:pageopacity="0" inkscape:pageshadow="2" inkscape:window-height="1017" inkscape:window-maximized="1" inkscape:window-width="1920" inkscape:window-x="-8" inkscape:window-y="-8" inkscape:zoom="9.0544161" objecttolerance="10" pagecolor="#ffffff" showgrid="false">
	</sodipodi:namedview>
<rect class="st0" width="163.2" height="57"/>
<path id="path7" inkscape:connector-curvature="0" class="st1" d="M75.2,46h-4v0.8h3.2c0,2-1.2,3.5-3.2,3.5c-2.5,0-3.5-2.1-3.5-4.1  c0-2.1,1-4.1,3.5-4.1c1.8,0,2.9,1.3,3,2.4h0.9c-0.3-2.1-1.9-3.1-3.9-3.1c-3,0-4.4,2.3-4.4,4.9c0,2.6,1.5,4.9,4.4,4.9  c1.4,0,2.6-0.6,3.2-1.9l0,0l0.1,1.7h0.6v-5H75.2z M77,50.7h0.9v-8.1l0,0l3.2,8.1H82l3.2-8.1l0,0v8.1h0.9v-9.4h-1.3l-3.2,8.3  l-3.2-8.3H77V50.7z M89,46.2h3.1c1.6,0,2.5,0.6,2.5,1.8c0,1.5-1.1,2-2.5,1.9H89V46.2z M88.1,50.7h4c3,0,3.4-1.8,3.4-2.7  c0-1.2-0.8-2.1-2-2.3l0,0c1-0.2,1.6-1.1,1.6-2.1c0-1.8-1.4-2.3-3-2.3h-4V50.7z M89,42.1h3.1c1.4,0,2.1,0.6,2.1,1.8  c0,0.9-0.7,1.6-2.1,1.6H89V42.1z M97,50.7h0.9v-4.6h5.6v4.6h0.9v-9.4h-0.9v4.1h-5.6v-4.1H97V50.7z"/>
<path id="path9" inkscape:connector-curvature="0" class="st1" d="M67.2,36.4h2.1V27h-2.1V36.4z M73.2,36.4h2.1v-7.7h2.8V27h-7.7  v1.7h2.8C73.2,28.7,73.2,36.4,73.2,36.4z M83.1,36.4h2.1v-3.9h3.9v-1.6h-3.9v-2.2h4.5V27h-6.6V36.4z M91,36.4h2.1v-3.7h2.1  c1,0,1.4,0.4,1.6,1.4c0.1,0.8,0.1,1.7,0.3,2.3h2.1c-0.4-0.5-0.4-1.6-0.4-2.2c-0.1-1-0.4-1.9-1.4-2.2l0,0c1-0.4,1.5-1.3,1.5-2.4  c0-1.4-1.1-2.6-2.7-2.6H91V36.4z M93.1,28.5h2.3c0.9,0,1.4,0.4,1.4,1.3c0,1-0.5,1.3-1.4,1.3h-2.3V28.5z M99.6,36.4h2.1l0.7-2.1h3.5  l0.7,2.1h2.1l-3.5-9.4h-2.1L99.6,36.4z M104.2,29.3L104.2,29.3l1.2,3.5H103L104.2,29.3z M109.7,36.4h1.9V30l0,0l3.9,6.3h2.1v-9.4  h-1.9v6.3l0,0l-3.9-6.3h-2L109.7,36.4z M119.6,36.4h2.1v-3l1.2-1.2l2.8,4.2h2.6l-4-5.7L128,27h-2.6l-3.7,3.9V27h-2.1  C119.6,27,119.6,36.4,119.6,36.4z M129.2,36.4h2.1v-3.9h3.9v-1.6h-3.9v-2.2h4.5V27h-6.6V36.4z M145,26.9h-2v5.9c0,1.4-0.5,2-1.9,2  c-1.7,0-1.9-1-1.9-2v-5.9h-2.1v5.9c0,2.6,1.5,3.8,4,3.8s4-1.2,4-3.8v-5.9H145z M146.9,36.4h2.1v-3.7h2.1c1,0,1.4,0.4,1.6,1.4  c0.1,0.8,0.1,1.7,0.3,2.3h2.1c-0.4-0.5-0.4-1.6-0.4-2.2c-0.1-1-0.4-1.9-1.4-2.2l0,0c1-0.4,1.5-1.3,1.5-2.4c0-1.4-1.1-2.6-2.7-2.6  H147v9.4H146.9z M149,28.5h2.3c0.9,0,1.4,0.4,1.4,1.3c0,1-0.5,1.3-1.4,1.3H149V28.5z M158.4,36.4h2.1v-7.7h2.8V27h-7.7v1.7h2.8  L158.4,36.4L158.4,36.4z"/>
<path id="path11" inkscape:connector-curvature="0" class="st2" d="M0,0h56.7v57H0V0z"/>
<path id="path13" inkscape:connector-curvature="0" class="st3" d="M8.3,26.2h3.2v-4.5H8.3V26.2z"/>
<path id="path15" inkscape:connector-curvature="0" class="st3" d="M8.3,29.9v19.7h3.2V32.8h7.9v11.8c0,3.5,1.1,5.3,6,5.3  c1,0,2.3-0.1,3.5-0.2v-2.6c-0.6,0.1-1.6,0.2-3.2,0.2c-2.6,0-3.2-0.9-3.2-2.7V32.8h12v16.8h3.3V32.8H44v-2.9h-6.3v-2.5  c0-2.5,0.9-3.2,3.7-3.2c1,0,2,0.1,3,0.2v-2.6c-1-0.1-2.4-0.2-3.6-0.2c-4.2,0-6.3,1.4-6.3,5.4v2.9h-12v-6.8h-3.2v6.8"/>
</svg>